<?xml version="1.0" ?><svg enable-background="new 0 0 512 512" id="Layer_1" version="1.1" viewBox="0 0 512 512" xml:space="preserve" xmlns="http://www.w3.org/2000/svg" xmlns:xlink="http://www.w3.org/1999/xlink"><g><g><linearGradient gradientUnits="userSpaceOnUse" id="SVGID_1_" x1="-0.0000027" x2="512" y1="256" y2="256"><stop offset="0" style="stop-color:#33B49D"/><stop offset="1" style="stop-color:#00A185"/></linearGradient><circle cx="256" cy="256" fill="url(#SVGID_1_)" r="256"/><linearGradient gradientUnits="userSpaceOnUse" id="SVGID_2_" x1="42.6666641" x2="469.3333435" y1="256.0005188" y2="256.0005188"><stop offset="0" style="stop-color:#00A185"/><stop offset="1" style="stop-color:#33B49D"/></linearGradient><path d="M256,469.3338623c-117.6315308,0-213.3333435-95.7018738-213.3333435-213.3333435    S138.3684692,42.6671982,256,42.6671982c117.6362,0,213.3333435,95.7018661,213.3333435,213.333313    S373.6362,469.3338623,256,469.3338623z" fill="url(#SVGID_2_)"/></g><path d="M381.7636719,355.9989319L278.295929,153.3338623c-6.3535767-12.4447937-22.237854-12.4447937-28.5914612,0   L146.2362061,355.9989319c-6.3535461,12.4442749,1.5888062,28.0005493,14.2960052,28.0005493h206.9354706   C380.175415,383.9994812,388.1173401,368.4432068,381.7636719,355.9989319z M268.9983521,344.5509338h-10v-97.0554657h10   V344.5509338z M268.9983521,232.6325378h-10v-12.4464111h10V232.6325378z" opacity="0.3"/><path d="M373.7636719,347.9989319L270.295929,145.3338623c-6.3535767-12.4447937-22.237854-12.4447937-28.5914612,0   L138.2362061,347.9989319c-6.3535461,12.4442749,1.5888062,28.0005493,14.2960052,28.0005493h206.9354706   C372.175415,375.9994812,380.1173401,360.4432068,373.7636719,347.9989319z M260.9983521,336.5509338h-10.0000153v-97.0554657   h10.0000153V336.5509338z M260.9983521,224.6325378h-10.0000153v-12.4464111h10.0000153V224.6325378z" fill="#FFFFFF"/></g></svg>