<?xml version="1.0" ?><svg viewBox="0 0 64 64" xmlns="http://www.w3.org/2000/svg"><defs><style>.cls-1{fill:#c1c8d1;}.cls-2{fill:#e6e9ed;}.cls-3{fill:#7f7059;}.cls-4{fill:#5f5443;}.cls-5{fill:#96cc7f;}.cls-6{fill:#c0e0b2;}.cls-7{fill:#758190;}.cls-8{fill:#fddfb1;}.cls-9{fill:#7fcdee;}.cls-10{fill:#64a5f8;}.cls-11{fill:#83b7f9;}.cls-12{fill:#58616c;}</style></defs><title/><g data-name="Layer 15" id="Layer_15"><rect class="cls-1" height="18" width="32" x="2" y="40"/><path class="cls-2" d="M2,40V52.91c.662.053,1.327.09,2,.09,9.209,0,17.445-5.053,22.948-13Z"/><path class="cls-3" d="M56,58h6a0,0,0,0,1,0,0v4a0,0,0,0,1,0,0H54a0,0,0,0,1,0,0V60A2,2,0,0,1,56,58Z"/><path class="cls-4" d="M56,58H52a2,2,0,0,0-2,2v2h4V60A2,2,0,0,1,56,58Z"/><path class="cls-5" d="M56,20h6a0,0,0,0,1,0,0V37a0,0,0,0,1,0,0H52a0,0,0,0,1,0,0V24A4,4,0,0,1,56,20Z"/><path class="cls-6" d="M52,24V34.822c4.532-.986,8-6.343,8-12.822a17.719,17.719,0,0,0-.124-2H56A4,4,0,0,0,52,24Z"/><rect class="cls-7" height="21" width="10" x="52" y="37"/><rect class="cls-8" height="4" rx="2" width="16" x="43" y="24"/><path class="cls-5" d="M57,24H54v4h3a2,2,0,0,0,0-4Z"/><path class="cls-8" d="M62,4H50a3.982,3.982,0,0,0,2,3.445V13a5,5,0,0,0,9.9.989c.034,0,.066.011.1.011l-.092-.092A4.939,4.939,0,0,0,62,13Z"/><path class="cls-7" d="M62,13V4H50a4,4,0,0,0,4,4h2l3,4.646A3.991,3.991,0,0,0,62,14h0"/><path class="cls-9" d="M24,10h0a4,4,0,0,1,4,4V25a4,4,0,0,1-4,4h0Z"/><polygon class="cls-1" points="2 6 24 6 24 29 34 36 2 36 2 6"/><path class="cls-2" d="M30.52,33.564,24,29V6H2V36H29.355Q29.973,34.811,30.52,33.564Z"/><rect class="cls-10" height="4" width="32" x="2" y="36"/><path class="cls-11" d="M29.355,36H2v4H26.948A37.312,37.312,0,0,0,29.355,36Z"/><rect class="cls-10" height="4" width="28" x="2" y="2"/><rect class="cls-10" height="4" width="32" x="2" y="58"/><rect class="cls-12" height="2" transform="translate(0.559 28.349) rotate(-45)" width="4.243" x="32.379" y="12.5"/><rect class="cls-12" height="4.243" transform="translate(-7.219 31.571) rotate(-45)" width="2" x="33.5" y="22.379"/><rect class="cls-12" height="2" width="4" x="34" y="18"/><rect class="cls-12" height="18" width="2" x="55" y="40"/></g></svg>