<?xml version="1.0" ?><!DOCTYPE svg  PUBLIC '-//W3C//DTD SVG 1.0//EN'  'http://www.w3.org/TR/2001/REC-SVG-20010904/DTD/svg10.dtd'><svg height="54px" style="shape-rendering:geometricPrecision; text-rendering:geometricPrecision; image-rendering:optimizeQuality; fill-rule:evenodd; clip-rule:evenodd" version="1.0" viewBox="0 0 64000 54000" width="64px" xml:space="preserve" xmlns="http://www.w3.org/2000/svg" xmlns:xlink="http://www.w3.org/1999/xlink"><defs><style type="text/css">
   <![CDATA[
    .fil0 {fill:#27afb7;fill-rule:nonzero}
   ]]>
  </style></defs><g id="Layer_x0020_1"><path class="fil0" d="M1000 0l26 0 61973 0c552,0 1000,449 1000,1000l0 26 0 7947 0 26 0 26 0 43974c0,552 -449,1000 -1000,1000l-26 0 -61973 0c-552,0 -1000,-449 -1000,-1000l0 -26 0 -43948 0 -26 0 -26 0 -7973c0,-552 449,-1000 1000,-1000zm6126 26999l26 0 2242 0 -1258 -5787c-116,-539 227,-1072 765,-1188 71,-15 142,-22 211,-22l0 -1 2506 0c379,0 711,214 880,526l4189 6473 11039 0 -2780 -12787c-116,-539 227,-1072 765,-1188 71,-15 142,-22 211,-22l0 -1 5012 0c379,0 711,214 880,526l8720 13474 13458 0c1098,0 2101,451 2825,1174 726,725 1180,1727 1180,2825l0 2c0,1096 -454,2100 -1180,2825 -724,723 -1727,1174 -2825,1174l-13458 0 -8764 13542c-191,294 -510,454 -836,454l0 4 -5012 0c-552,0 -1000,-449 -1000,-1000 0,-85 12,-169 32,-248l2772 -12751 -11039 0 -4233 6542c-191,294 -510,454 -836,454l0 4 -2506 0c-552,0 -1000,-449 -1000,-1000 0,-85 12,-169 32,-248l1250 -5751 -2268 0c-552,0 -1000,-449 -1000,-1000l0 -26 0 -5974c0,-552 449,-1000 1000,-1000zm3508 2001l-2507 0 0 3999 2507 0 0 1c70,0 141,7 211,22 539,116 881,650 765,1188l-1258 5787 725 0 4189 -6473c169,-312 501,-526 880,-526l12821 0 0 1c70,0 141,7 211,22 539,116 881,650 765,1188l-2780 12787 3231 0 8720 -13474c169,-312 501,-526 880,-526l13999 0c553,0 1057,-226 1420,-588 360,-359 585,-860 585,-1410l0 -2c0,-550 -224,-1051 -585,-1410 -363,-363 -867,-588 -1420,-588l-13999 0 0 -4c-326,0 -645,-159 -836,-454l-8764 -13542 -3231 0 2772 12751c20,79 32,163 32,248 0,552 -449,1000 -1000,1000l-12821 0 0 -4c-326,0 -645,-159 -836,-454l-4233 -6542 -725 0 1250 5751c20,79 32,163 32,248 0,552 -449,1000 -1000,1000zm14322 18751c111,-432 502,-752 968,-752m-17780 -6248c111,-432 502,-752 968,-752m31969 10000c-552,0 -1000,-449 -1000,-1000 0,-552 449,-1000 1000,-1000l9921 0c552,0 1000,449 1000,1000 0,552 -449,1000 -1000,1000l-9921 0zm3999 -4999c-552,0 -1000,-449 -1000,-1000 0,-552 449,-1000 1000,-1000l9921 0c552,0 1000,449 1000,1000 0,552 -449,1000 -1000,1000l-9921 0zm-36084 -30998c-552,0 -1000,-449 -1000,-1000 0,-552 449,-1000 1000,-1000l9921 0c552,0 1000,449 1000,1000 0,552 -449,1000 -1000,1000l-9921 0zm3999 4999c-552,0 -1000,-449 -1000,-1000 0,-552 449,-1000 1000,-1000l9921 0c552,0 1000,449 1000,1000 0,552 -449,1000 -1000,1000l-9921 0zm2003 -15001l2000 0 0 2001 -2000 0 0 -2001zm-4999 0l2000 0 0 2001 -2000 0 0 -2001zm-4999 0l2000 0 0 2001 -2000 0 0 -2001zm56999 6001l-59999 0 0 41999 59999 0 0 -41999zm-59999 -2001l59999 0 0 -5999 -59999 0 0 5999z"/></g></svg>