<?xml version="1.0" ?><!DOCTYPE svg  PUBLIC '-//W3C//DTD SVG 1.0//EN'  'http://www.w3.org/TR/2001/REC-SVG-20010904/DTD/svg10.dtd'><svg height="64px" style="shape-rendering:geometricPrecision; text-rendering:geometricPrecision; image-rendering:optimizeQuality; fill-rule:evenodd; clip-rule:evenodd" version="1.0" viewBox="0 0 13289 15187" width="56px" xml:space="preserve" xmlns="http://www.w3.org/2000/svg" xmlns:xlink="http://www.w3.org/1999/xlink"><defs><style type="text/css">
   <![CDATA[
    .fil0 {fill:#27afb7;fill-rule:nonzero}
   ]]>
  </style></defs><g id="Layer_x0020_1"><path class="fil0" d="M12175 12103l2 0 4 1 3 0 3 1 3 0 3 1 11 2 3 1 2 1 3 1 2 1 4 1 2 1 4 1 2 1 3 1 2 1 5 2 3 1 2 1 3 1 2 1 3 1 2 1 3 1 2 1 3 1 2 1 3 1 3 1 3 1 3 2 3 1 3 2 2 1 3 2 2 1 3 2 2 1 3 3 1 1 4 3 1 1 4 3 1 1 4 3 0 0 4 4 4 4 0 0 4 4 0 1 4 4 1 1 3 3 1 1 3 3 1 1 3 3 1 1 3 3 1 2 3 3 1 2 2 3 1 2 2 3 1 2 2 3 1 2 2 3 1 2 2 3 1 2 2 3 1 2 1 3 1 3 1 3 1 3 1 3 1 3 1 3 1 3 1 3 1 3 2 5 1 3 1 2 3 11 1 4 0 2 1 4 0 2 2 11 1 4 0 1 1 4 0 1 2 29 0 6 0 1892c0,131 -107,237 -237,237 -131,0 -237,-107 -237,-237l0 -1277c-608,625 -1328,1143 -2127,1521 -954,452 -2021,705 -3145,705 -1124,0 -2191,-253 -3145,-705 -991,-470 -1861,-1154 -2548,-1992 -83,-101 -68,-251 33,-334 101,-83 251,-68 334,33 643,785 1457,1426 2382,1864 891,422 1889,659 2943,659 1054,0 2052,-237 2943,-659 768,-364 1459,-867 2040,-1477l-1372 0c-131,0 -237,-107 -237,-237 0,-131 107,-237 237,-237l1899 0 22 1zm-770 -4386c538,112 1010,381 1346,749 336,367 537,832 537,1336l0 841c0,131 -107,237 -237,237l-6 0 -5291 0c-131,0 -237,-107 -237,-237l0 -6 0 -834c0,-504 201,-969 537,-1336 335,-367 808,-637 1346,-749 60,-12 120,-1 169,28 121,63 253,114 394,148l12 3c134,31 278,48 429,48 156,0 304,-18 441,-52 143,-35 279,-87 402,-153 51,-27 107,-34 159,-23l0 -1zm997 1068c-254,-277 -608,-487 -1015,-586 -136,65 -281,118 -433,155 -178,43 -364,67 -552,67 -185,0 -367,-23 -541,-64l-13 -3c-151,-37 -296,-89 -432,-155 -407,100 -761,309 -1015,586 -257,281 -411,635 -411,1017l0 603 4822 0 0 -603c0,-382 -154,-736 -411,-1017zm-2001 -4479c483,0 920,196 1237,513l1 1c317,317 513,754 513,1237 0,483 -196,921 -513,1237l-1 1c-317,317 -755,513 -1237,513 -483,0 -922,-196 -1238,-513l-12 -13c-309,-316 -501,-748 -501,-1225 0,-483 196,-920 513,-1237l1 -1 -1 -1c316,-316 755,-513 1238,-513zm903 848c-231,-230 -551,-373 -903,-373 -352,0 -672,143 -902,374l-1 -1c-230,231 -373,550 -373,903 0,347 138,663 363,892l11 10c231,231 550,374 902,374 353,0 672,-143 903,-373 230,-231 373,-550 373,-903 0,-353 -143,-672 -373,-903zm-7417 2563c538,112 1010,381 1346,749 336,367 537,832 537,1336l0 841c0,131 -107,237 -237,237l-6 0 -5291 0c-131,0 -237,-107 -237,-237l0 -6 0 -834c0,-504 201,-969 537,-1336 335,-367 808,-637 1346,-749 60,-12 120,-1 169,28 121,63 253,114 394,148l12 3c134,31 278,48 429,48 156,0 304,-18 441,-52 143,-35 279,-87 402,-153 51,-27 107,-34 159,-23l0 -1zm997 1068c-254,-277 -608,-487 -1015,-586 -136,65 -281,118 -433,155 -178,43 -364,67 -552,67 -185,0 -367,-23 -541,-64l-13 -3c-151,-37 -296,-89 -432,-155 -407,100 -761,309 -1015,586 -257,281 -411,635 -411,1017l0 603 4822 0 0 -603c0,-382 -154,-736 -411,-1017zm-2001 -4479c483,0 920,196 1237,513l1 1c317,317 513,754 513,1237 0,483 -196,921 -513,1237l-1 1c-317,317 -755,513 -1237,513 -483,0 -922,-196 -1238,-513l-12 -13c-309,-316 -501,-748 -501,-1225 0,-483 196,-920 513,-1237l1 -1 -1 -1c316,-316 755,-513 1238,-513zm903 848c-231,-230 -551,-373 -903,-373 -352,0 -672,143 -902,374l-1 -1c-230,231 -373,550 -373,903 0,347 138,663 363,892l11 10c231,231 550,374 902,374 353,0 672,-143 903,-373 230,-231 373,-550 373,-903 0,-353 -143,-672 -373,-903zm-755 -2544c131,0 237,107 237,237 0,131 -107,237 -237,237l-1899 0 -22 -1 -2 0 -4 -1 -3 0 -3 -1 -3 0 -3 -1 -11 -2 -3 -1 -2 -1 -3 -1 -2 -1 -4 -1 -2 -1 -4 -1 -2 -1 -3 -1 -2 -1 -5 -2 -3 -1 -2 -1 -3 -1 -2 -1 -3 -1 -2 -1 -3 -1 -2 -1 -3 -1 -2 -1 -3 -1 -3 -1 -3 -1 -3 -2 -3 -1 -3 -2 -2 -1 -3 -2 -2 -1 -3 -2 -2 -1 -3 -3 -1 -1 -4 -3 -1 -1 -4 -3 -1 -1 -4 -3 0 0 -4 -4 -4 -4 0 0 -4 -4 0 -1 -4 -4 -1 -1 -3 -3 -1 -1 -3 -3 -1 -1 -3 -3 -1 -1 -3 -3 -1 -2 -3 -3 -1 -2 -2 -3 -1 -2 -2 -3 -1 -2 -2 -3 -1 -2 -2 -3 -1 -2 -2 -3 -1 -2 -2 -3 -1 -2 -1 -3 -1 -3 -1 -3 -1 -3 -1 -3 -1 -3 -1 -3 -1 -3 -1 -3 -1 -3 -2 -5 -1 -3 -1 -2 -3 -11 -1 -4 0 -2 -1 -4 0 -2 -2 -11 -1 -4 0 -1 -1 -4 0 -1 -2 -29 0 -6 0 -1892c0,-131 107,-237 237,-237 131,0 237,107 237,237l0 1277c608,-625 1328,-1143 2127,-1521 954,-452 2021,-705 3145,-705 1124,0 2191,253 3145,705 991,470 1861,1154 2548,1992 83,101 68,251 -33,334 -101,83 -251,68 -334,-33 -643,-785 -1457,-1426 -2382,-1865 -891,-422 -1889,-659 -2943,-659 -1054,0 -2052,237 -2943,659 -768,364 -1459,867 -2040,1477l1372 0z"/></g></svg>