<?xml version="1.0" ?><svg viewBox="0 0 512 512" xmlns="http://www.w3.org/2000/svg"><g id="Temperature_check_scan"><path d="M140.1,170.6985c-4.2857,0-7.76,4.1314-7.76,9.2276s3.4741,9.2275,7.76,9.2275,7.76-4.1313,7.76-9.2275S144.3858,170.6985,140.1,170.6985Z"/><path d="M202.1015,189.1536c4.2856,0,7.76-4.1313,7.76-9.2275s-3.4742-9.2276-7.76-9.2276-7.76,4.1314-7.76,9.2276S197.816,189.1536,202.1015,189.1536Z"/><path d="M302.248,127.647h17.917a6,6,0,0,0,0-12H302.248a6,6,0,0,0,0,12Z"/><path d="M268.9921,321.5025,228.7109,304.595V286.9693c0-.0786-.0088-.1553-.0118-.2332,20.471-14.2,35.4507-35.6677,42.5479-60.883a32.6684,32.6684,0,0,0,31.1387-32.5957,34.3038,34.3038,0,0,0-10.9776-25.04,31.04,31.04,0,0,0-2.8313-2.2766c.2158-2.7165.3789-5.4011.5159-8.0664l.0122.0042c2.3774-34.5762-5.4888-60.9317-5.4888-60.9317-12.1152-44.7324-41.0307-64.915-63.1543-73.9687a118.2426,118.2426,0,0,0-45.3632-8.919H174.55c-3.4375-.123-48.4839-1.084-81.3486,33.1211C67.5646,73.8619,56.78,114.1255,61.1337,166.8516a32.6125,32.6125,0,0,0,17.6436,59.0015c7.7961,27.6794,25.1,50.8066,48.309,64.6072v13.3574L84.953,321.5025a120.1562,120.1562,0,0,0-73.82,111.043v7.9961c0,11.7128,8.8443,28.5195,50.9786,42.0761,30.7675,9.8985,71.56,15.3506,114.8613,15.3506s84.0937-5.4521,114.8613-15.3506c42.1348-13.5566,50.9785-30.3633,50.9785-42.0761v-7.9961A120.1568,120.1568,0,0,0,268.9921,321.5025Zm21.3936-128.2451a20.6634,20.6634,0,0,1-16.4539,20.2033c.3895-2.624.6871-5.1482.91-7.3488a6,6,0,1,0-11.9394-1.2071,120.9316,120.9316,0,0,1-1.9654,13.0691c-.0577.1712-.1277.3357-.17.5139a100.5471,100.5471,0,0,1-26.6728,48.1929c5.812-12.0576,8.303-24.6394,9.3451-33.9863.0538-.24.1158-.53.1969-.9107,9.2695-43.5371,20.3408-59.1679,25.6406-59.1679.0488,0,.0986.0019.1465.0039l-.0065-.0071a5.9929,5.9929,0,0,0,.9166-.01,16.6991,16.6991,0,0,1,13.0069,4.4971A22.1192,22.1192,0,0,1,290.3857,193.2574Zm-33.206-77.61h17.917a6,6,0,0,1,0,12H257.18a6,6,0,0,1,0-12ZM89.2572,218.4878c-.0319-.1333-.087-.2548-.1274-.384a120.153,120.153,0,0,1-1.9941-13.199,6,6,0,0,0-11.9395,1.2071c.2225,2.2021.52,4.7273.9107,7.3525A20.618,20.618,0,0,1,79.59,172.6609c5.4731.9378,16.1521,16.9192,25.1383,59.1238.1811.85.2715,1.273.3728,1.6118a108.5567,108.5567,0,0,0,7.8774,30.26A101.4468,101.4468,0,0,1,89.2572,218.4878Zm26.6353-7.5976a21.7347,21.7347,0,0,0-3.2278,2.2585q-7.1547-27.402-16.0483-40.5569c23.4054-1.4167,67.2671-8.8794,117.2693-41.53a9.6139,9.6139,0,0,1,12.8466,2.0117c7.7364,9.7285,18.8645,22.4048,31.1807,32.311-8.4038,7.3753-15.8273,23.3142-22.1982,47.6983a21.769,21.769,0,0,0-3.15-2.1929h0c-19.2745-10.95-38.8384-16.8076-58.15-17.4082-.1241-.0039-.2491-.0039-.3731,0C154.73,194.0826,135.1659,199.94,115.8925,210.89Zm97.3452,19.2637a4.4706,4.4706,0,0,1-2.5146-.7706c-38.9947-26.3369-70.1431-1.3417-71.45-.2646a4.5,4.5,0,0,1-5.75-6.9229A66.7148,66.7148,0,0,1,157.788,210.55c13.583-3.5,34.666-4.3662,57.9722,11.3741a4.5,4.5,0,0,1-2.5225,8.23Zm3.4732,59.435v31.8892c0,8.0088-16.5982,16.9668-38.8121,16.9668s-38.8125-8.958-38.8125-16.9668V294.8545c9.88,5.927,21.623,8.9165,35.1421,8.9165C191.2773,303.771,205.4882,298.9954,216.7109,289.5889ZM330.8122,440.5416c0,21.4863-63.18,45.4267-153.8394,45.4267s-153.84-23.94-153.84-45.4267v-7.9961a108.1838,108.1838,0,0,1,66.4648-99.9786l37.4888-15.7353v4.6465c0,16.5136,21.8442,28.9668,50.812,28.9668s50.812-12.4532,50.812-28.9668v-3.8692l35.6372,14.958a108.1842,108.1842,0,0,1,66.4644,99.9786Z"/><path d="M500.8671,82.5289a42.8947,42.8947,0,0,0-8.1428-25.179l6.8332-8.5681a6,6,0,1,0-9.3808-7.4824l-5.8342,7.3154a43.1146,43.1146,0,0,0-68.7764,43.0391h-61.864a16.3821,16.3821,0,0,0-16.3633,16.3632v33.4981a16.3822,16.3822,0,0,0,16.3633,16.3633h33.0551l1.3238,15.4853a16.9136,16.9136,0,0,0,16.9511,15.5625h16.3394l.95,11.72a15.2615,15.2615,0,0,0,15.13,13.9551H464.6a15.1779,15.1779,0,0,0,15.126-16.45l-6.3008-74.999c-.0122-.1455-.0342-.2881-.0483-.4331A43.2013,43.2013,0,0,0,500.8671,82.5289Zm-129.2,63.35H353.7021a4.3678,4.3678,0,0,1-4.3633-4.3633V108.0171a4.3677,4.3677,0,0,1,4.3633-4.3632h17.9653Zm33.3647,31.0478a4.983,4.983,0,0,1-4.9941-4.5849l-1.2363-14.4629h9.1846a11.85,11.85,0,0,1,11.747,10.8339l.6657,8.2139ZM457.7265,113.67a31.1407,31.1407,0,1,1,19.1387-55.6787L456.829,83.1138l-7.6748-9.1758a6,6,0,0,0-9.2051,7.6993l12.3877,14.8105a6.0026,6.0026,0,0,0,4.6026,2.15h.07a6.001,6.001,0,0,0,4.62-2.2588l23.2087-29.1013a31.1181,31.1181,0,0,1-27.112,46.4314Z"/></g></svg>